<?xml version="1.0" encoding="UTF-8" standalone="no"?>
<svg
   xmlns="http://www.w3.org/2000/svg"
   version="1.1"
   width="1024"
   height="1024"
   id="svg1015">
  <defs
     id="defs1019" />
  <path
     d="M0 0 C0.68921728 -0.01571926 1.37843456 -0.03143852 2.08853722 -0.04763412 C8.41621952 -0.05480842 13.14930793 1.81949013 17.66552734 6.24316406 C18.46584517 7.67450172 19.21828513 9.13388329 19.91552734 10.61816406 C20.91013909 12.75370196 20.91013909 12.75370196 22.66552734 14.24316406 C26.18797534 14.6709549 29.49230836 14.48179018 33.03271484 14.28222656 C43.67593185 14.16778337 54.36097752 20.88299953 61.91552734 27.99316406 C71.56268879 38.24449118 75.2333789 49.48045608 74.85302734 63.36816406 C74.83949219 64.32464844 74.82595703 65.28113281 74.81201172 66.26660156 C74.77711956 68.59274516 74.72811074 70.91762937 74.66552734 73.24316406 C75.32037109 72.86804688 75.97521484 72.49292969 76.64990234 72.10644531 C96.86873918 60.76904669 116.9837809 56.78114598 139.86474609 62.12597656 C150.23123869 65.17306483 160.39504049 68.6340264 169.66552734 74.24316406 C169.33552734 73.58316406 169.00552734 72.92316406 168.66552734 72.24316406 C168.51275386 70.73940795 168.41615079 69.22973624 168.34912109 67.71972656 C168.30682373 66.79039307 168.26452637 65.86105957 168.22094727 64.90356445 C168.0181709 59.68385735 167.83129976 54.46418243 167.66552734 49.24316406 C167.61235352 47.80046143 167.61235352 47.80046143 167.55810547 46.32861328 C167.46593542 43.65427105 167.40427151 40.98106856 167.35302734 38.30566406 C167.32329834 37.50918457 167.29356934 36.71270508 167.26293945 35.89208984 C167.19498373 29.14945178 169.18065737 24.19264208 173.52490234 19.03613281 C174.46076172 18.24142578 174.46076172 18.24142578 175.41552734 17.43066406 C176.33591797 16.61662109 176.33591797 16.61662109 177.27490234 15.78613281 C185.71355278 10.33961824 194.88187466 10.52898992 204.57568359 10.11035156 C206.26448906 10.02836024 207.95324486 9.94534027 209.64195251 9.86135864 C213.19644387 9.68724472 216.75119027 9.52163214 220.30639648 9.36279297 C224.73454716 9.16486903 229.16183164 8.95251873 233.58902931 8.73441696 C244.0543319 8.21969008 254.52127677 7.76250998 264.99106598 7.34928894 C266.79793134 7.277591 268.60474949 7.20469469 270.41152191 7.13069153 C275.84558581 6.90821412 281.27976735 6.70375809 286.71548271 6.52591324 C288.408851 6.46832688 290.10204681 6.40537994 291.79500008 6.33666611 C294.1389118 6.2430508 296.48259976 6.17042999 298.82739258 6.10302734 C299.84520593 6.05593565 299.84520593 6.05593565 300.88358116 6.00789261 C306.17070091 5.89114261 309.83974379 7.32744644 314.66552734 9.24316406 C317.98276858 8.99280623 320.51906342 8.29198537 323.66552734 7.24316406 C327.03521025 7.00498857 330.41331897 7.05287067 333.79052734 7.05566406 C334.79937988 7.05646973 335.80823242 7.05727539 336.84765625 7.05810547 C344.60410781 7.11889831 352.30833538 7.51345364 360.04052734 8.11816406 C361.06678223 8.19655518 362.09303711 8.27494629 363.15039062 8.35571289 C373.13190872 9.2097509 381.20690627 10.10516245 388.66552734 17.24316406 C393.75551642 23.34820877 393.85795194 28.83140343 393.85302734 36.43066406 C393.85367188 37.46843994 393.85431641 38.50621582 393.85498047 39.57543945 C393.7868 50.17362772 393.12377164 60.72083362 392.37719727 71.28881836 C391.91041707 77.96132284 391.5480456 84.55404714 391.66552734 91.24316406 C392.18759766 90.61410156 392.70966797 89.98503906 393.24755859 89.33691406 C405.19247625 75.44650193 421.25772223 65.40210417 439.66552734 63.24316406 C459.20946746 61.90880207 476.80833264 65.36759762 492.57958984 77.48144531 C495.05501489 79.6465074 497.3766019 81.88297171 499.66552734 84.24316406 C500.59751953 85.16162109 500.59751953 85.16162109 501.54833984 86.09863281 C507.1576385 91.99720023 510.82152674 99.13425904 514.66552734 106.24316406 C514.99423828 105.64890625 515.32294922 105.05464844 515.66162109 104.44238281 C526.94846787 84.77451702 543.72704289 70.74814477 565.73291016 64.67236328 C584.63401429 60.0483284 602.88612497 63.86919626 619.66552734 73.24316406 C619.95685547 72.65148437 620.24818359 72.05980469 620.54833984 71.45019531 C623.81345423 65.15612262 626.77908979 61.28354378 633.16552734 57.93066406 C636.078259 57.12966286 638.65681151 57.1977027 641.66552734 57.24316406 C641.63934326 56.50791504 641.61315918 55.77266602 641.58618164 55.01513672 C641.48123823 51.63303628 641.41689414 48.25127972 641.35302734 44.86816406 C641.31113281 43.711875 641.26923828 42.55558594 641.22607422 41.36425781 C641.10387876 32.71281948 642.53082337 25.98573395 648.32617188 19.33837891 C660.22523756 7.86336594 689.83878778 10.26988767 705.16552734 9.93066406 C713.42813074 10.08884453 720.06062171 11.65621915 726.15771484 17.46972656 C732.43692788 24.85512221 732.33597319 32.93354461 731.66552734 42.24316406 C731.152907 47.26637528 730.44800263 52.25488409 729.66552734 57.24316406 C730.34357422 57.18515625 731.02162109 57.12714844 731.72021484 57.06738281 C739.08823122 56.7102075 744.70323275 57.70890157 750.66552734 62.24316406 C756.03895759 68.4794012 757.84261605 73.77964992 757.79052734 81.93066406 C757.78569336 82.73286377 757.78085937 83.53506348 757.77587891 84.36157227 C757.74873392 87.32227609 757.70674341 90.28262277 757.66552734 93.24316406 C757.65295898 94.52964844 757.64039063 95.81613281 757.62744141 97.14160156 C757.5908264 100.68993998 757.52995001 104.23731723 757.45599365 107.7850647 C757.42921306 109.20502162 757.40881245 110.62511452 757.39508057 112.04525757 C757.29338026 121.63452632 756.90674984 128.80467541 749.97802734 136.05566406 C743.88559947 140.07896549 738.66697256 141.41259305 731.36083984 141.31738281 C730.2910791 141.30666748 729.22131836 141.29595215 728.11914062 141.28491211 C727.30944824 141.27113525 726.49975586 141.2573584 725.66552734 141.24316406 C725.66774796 141.86512665 725.66996857 142.48708923 725.67225647 143.12789917 C725.6943286 149.58379544 725.70944205 156.03968105 725.72045898 162.49560547 C725.72549709 164.90706823 725.73232769 167.31852792 725.7409668 169.72998047 C725.75305521 173.19011185 725.75876078 176.65020296 725.76318359 180.11035156 C725.76834488 181.19371796 725.77350616 182.27708435 725.77882385 183.39328003 C725.77889938 184.39416656 725.77897491 185.3950531 725.77905273 186.42626953 C725.78127335 187.31007294 725.78349396 188.19387634 725.78578186 189.10446167 C725.66552734 191.24316406 725.66552734 191.24316406 724.66552734 193.24316406 C725.32552734 192.91316406 725.98552734 192.58316406 726.66552734 192.24316406 C733.65282703 191.49068563 739.2734015 191.56405686 745.04833984 195.81738281 C751.62578386 201.61633708 752.97366068 208.01423857 754.17333984 216.31347656 C754.30368622 217.19035126 754.43403259 218.06722595 754.56832886 218.97067261 C754.84195943 220.82439266 755.11240835 222.6785848 755.37988281 224.53320312 C755.78633299 227.33920758 756.20766154 230.14269385 756.63037109 232.94628906 C760.29099949 257.68963232 760.29099949 257.68963232 756.60302734 264.55566406 C756.22017578 265.31492187 755.83732422 266.07417969 755.44287109 266.85644531 C750.63169386 273.31716903 744.92787727 276.39443693 737.41552734 278.93066406 C736.57650879 279.22537598 735.73749023 279.52008789 734.87304688 279.82373047 C714.11599278 287.0207388 690.9191471 290.46304894 670.35302734 280.66503906 C660.21878148 275.04053261 652.55558717 268.31148508 646.66552734 258.24316406 C646.66552734 257.58316406 646.66552734 256.92316406 646.66552734 256.24316406 C646.21564453 256.65566406 645.76576172 257.06816406 645.30224609 257.49316406 C622.63585083 277.8429538 599.05527473 286.32269955 568.69628906 285.42675781 C562.34939004 285.04228318 556.62674335 283.450484 550.66552734 281.24316406 C549.63814453 280.89253906 548.61076172 280.54191406 547.55224609 280.18066406 C534.83397589 275.42987052 522.25476227 266.62701645 514.66552734 255.24316406 C511.2338285 256.69972957 509.28018947 258.55928581 506.79052734 261.30566406 C491.92565473 276.48837112 470.01509649 285.1340399 448.93652344 285.7878418 C435.11580213 285.87109915 421.99439297 283.85651649 409.66552734 277.24316406 C408.72322266 276.75074219 407.78091797 276.25832031 406.81005859 275.75097656 C397.75666989 270.77103905 389.80346177 264.64097435 383.66552734 256.24316406 C383.66552734 255.58316406 383.66552734 254.92316406 383.66552734 254.24316406 C383.00552734 254.24316406 382.34552734 254.24316406 381.66552734 254.24316406 C381.73513672 255.51160156 381.73513672 255.51160156 381.80615234 256.80566406 C382.08288202 265.50288241 381.61174957 270.96935968 375.64208984 277.43457031 C368.83464217 283.92836425 362.76545154 285.58799164 353.38037109 285.38378906 C352.60128891 285.37486633 351.82220673 285.3659436 351.01951599 285.35675049 C349.38475695 285.33688919 347.75004653 285.31256147 346.11541748 285.28393555 C343.746781 285.2445163 341.37866266 285.22234653 339.00976562 285.20605469 C335.18276324 285.17658924 331.35728784 285.11468816 327.53100586 285.03564453 C325.98327297 285.00709523 324.43538507 284.98605368 322.88745117 284.97216797 C311.48721105 284.86498928 299.82923612 284.412109 291.10302734 276.06347656 C283.59616154 266.55749976 285.46353982 254.94665362 286.50537109 243.66113281 C286.5917836 242.68509598 286.67819611 241.70905914 286.76722717 240.70344543 C287.04171095 237.61213423 287.32213939 234.52139929 287.60302734 231.43066406 C287.87907292 228.35053833 288.15386704 225.27030391 288.42811584 222.1900177 C288.59821275 220.28420889 288.76952673 218.37850809 288.94236755 216.47294617 C289.57992316 209.39916464 290.12064163 202.32667833 290.66552734 195.24316406 C277.30052734 195.73816406 277.30052734 195.73816406 263.66552734 196.24316406 C263.88208984 199.29695312 264.09865234 202.35074219 264.32177734 205.49707031 C264.53216339 208.54227348 264.73983279 211.58765104 264.94726562 214.63305664 C265.08995402 216.70714576 265.23534846 218.78105095 265.38378906 220.85473633 C266.19048363 232.15120412 266.83581793 243.44478689 267.00927734 254.77050781 C267.03711304 255.70584854 267.06494873 256.64118927 267.09362793 257.60487366 C267.13352238 264.62466149 265.48930029 269.74608273 261.06005859 275.23144531 C253.5806363 281.49199878 245.28009565 282.69641975 235.78662109 283.41113281 C234.7751149 283.49567215 233.7636087 283.58021149 232.72145081 283.66731262 C230.59654379 283.84290114 228.47119439 284.013209 226.34545898 284.1784668 C223.10802881 284.43027505 219.87217148 284.69755948 216.63623047 284.96777344 C214.56143404 285.13729352 212.48656624 285.30594283 210.41162109 285.47363281 C209.45307724 285.55171677 208.49453339 285.62980072 207.50694275 285.71025085 C196.67119288 286.54731632 188.23417094 286.80118727 179.29052734 279.80566406 C176.80552718 277.37983057 175.14728205 275.37131289 173.66552734 272.24316406 C173.66552734 271.25316406 173.66552734 270.26316406 173.66552734 269.24316406 C172.79154297 269.82324219 171.91755859 270.40332031 171.01708984 271.00097656 C157.41393798 279.75135553 142.90443603 285.11666559 126.66552734 286.24316406 C125.97442871 286.29230957 125.28333008 286.34145508 124.57128906 286.39208984 C105.00796629 287.59142341 86.76072531 282.22685452 68.66552734 275.24316406 C68.00552734 276.15066406 67.34552734 277.05816406 66.66552734 277.99316406 C62.86768932 282.45113429 58.53469096 284.87121992 52.74053955 285.62234497 C49.2641366 285.78783964 45.80991944 285.82374397 42.32958984 285.80957031 C40.41779434 285.81886818 40.41779434 285.81886818 38.46737671 285.82835388 C35.77895746 285.83543879 33.09204459 285.83426505 30.40380859 285.81958008 C26.98534061 285.80242022 23.56855812 285.82587251 20.15027809 285.86106968 C16.8558646 285.88851482 13.56158523 285.87829556 10.26708984 285.87207031 C8.44632431 285.89195763 8.44632431 285.89195763 6.58877563 285.9122467 C-1.03045724 285.82954381 -7.03467075 284.73436578 -13.33447266 280.24316406 C-19.13799662 274.11260446 -21.69588985 268.32452804 -21.58447266 259.84472656 C-21.57649658 258.6979393 -21.57649658 258.6979393 -21.56835938 257.52798462 C-21.38067942 245.21876324 -20.362615 232.93153864 -19.48022461 220.65704346 C-19.23433161 217.2173217 -18.99568675 213.77709695 -18.75634766 210.33691406 C-18.28890485 203.63852645 -17.81449837 196.9406611 -17.33447266 190.24316406 C-18.39190674 190.37948242 -18.39190674 190.37948242 -19.47070312 190.51855469 C-22.71617221 190.93320921 -25.96277589 191.33823896 -29.20947266 191.74316406 C-30.31806641 191.88625 -31.42666016 192.02933594 -32.56884766 192.17675781 C-39.19857614 192.99572427 -45.65476847 193.44723989 -52.33447266 193.24316406 C-52.3094165 193.85465302 -52.28436035 194.46614197 -52.25854492 195.09616089 C-51.9946438 201.55433305 -51.7359175 208.01269884 -51.47998047 214.47119141 C-51.38425899 216.87033151 -51.28728865 219.26942217 -51.18896484 221.66845703 C-50.24934958 244.63150345 -50.24934958 244.63150345 -50.14306641 255.57910156 C-50.12957153 256.28509491 -50.11607666 256.99108826 -50.10217285 257.71847534 C-50.08674363 264.86628153 -52.35071081 269.70657325 -56.87353516 275.06738281 C-63.72168034 281.76947751 -73.56350639 282.67366239 -82.69775391 283.41113281 C-83.6515947 283.49567215 -84.60543549 283.58021149 -85.58818054 283.66731262 C-87.59196585 283.84269567 -89.59620006 284.01301811 -91.60083008 284.1784668 C-94.62978254 284.42924085 -97.6568432 284.69717265 -100.68408203 284.96777344 C-131.75453519 287.68199597 -131.75453519 287.68199597 -140.33447266 281.24316406 C-145.25051989 276.26579399 -148.1841081 270.91887306 -148.47468567 263.81561279 C-148.42430649 262.55259338 -148.37392731 261.28957397 -148.32202148 259.98828125 C-148.29779051 259.28179192 -148.27355953 258.57530258 -148.24859428 257.84740448 C-148.19533394 256.30806627 -148.13749179 254.76888127 -148.07559776 253.22986603 C-147.90623438 248.95198167 -147.77934343 244.67278928 -147.64941406 240.39355469 C-147.60722575 239.03334135 -147.60722575 239.03334135 -147.56418514 237.64564896 C-147.01540819 219.26850864 -147.04659307 200.87698532 -147.02197266 182.49316406 C-147.01993835 181.43722801 -147.01790405 180.38129196 -147.01580811 179.29335785 C-146.95003406 142.58217825 -148.06429163 106.04224109 -150.19120789 69.39624023 C-151.54877969 45.96264707 -151.54877969 45.96264707 -151.70947266 35.98535156 C-151.73541504 35.18847931 -151.76135742 34.39160706 -151.78808594 33.57058716 C-151.80913509 27.18348479 -149.86162148 21.84567518 -145.36962891 17.21972656 C-144.71865234 16.77371094 -144.06767578 16.32769531 -143.39697266 15.86816406 C-142.424375 15.1759375 -142.424375 15.1759375 -141.43212891 14.46972656 C-136.72986471 11.72017171 -132.24435061 10.81529442 -126.875 10.3046875 C-125.7693186 10.19108509 -125.7693186 10.19108509 -124.6413002 10.07518768 C-122.19339442 9.8263618 -119.7445365 9.58902809 -117.29541016 9.35253906 C-115.55290766 9.1794614 -113.81042556 9.00617829 -112.06796265 8.83270264 C-93.58998656 7.01201029 -75.08945985 5.44983493 -56.58300781 3.95068359 C-51.83770844 3.56604414 -47.09331539 3.17119074 -42.34905434 2.77397537 C-38.60523922 2.46202518 -34.86092054 2.15648328 -31.116436 1.85268402 C-29.36633765 1.70976222 -27.61641075 1.56472069 -25.86668777 1.41727448 C-17.24934815 0.69371256 -8.64964199 0.10574493 0 0 Z "
     fill="#020100"
     transform="translate(209.33447265625,349.7568359375)"
     id="path977" />
  <path
     d="M0 0 C0.09206303 7.90599406 -0.13259618 15.71884222 -0.734375 23.6015625 C-0.81367249 24.64524994 -0.89296997 25.68893738 -0.97467041 26.76425171 C-1.14334852 28.94413118 -1.31490319 31.12378987 -1.48925781 33.30322266 C-1.66444009 35.53499244 -1.83097837 37.76745608 -1.98925781 40.00048828 C-2.21922934 43.2442225 -2.4738253 46.4851588 -2.734375 49.7265625 C-2.83464996 51.22952377 -2.83464996 51.22952377 -2.93695068 52.7628479 C-3.01673157 53.68496063 -3.09651245 54.60707336 -3.17871094 55.55712891 C-3.24088806 56.36920807 -3.30306519 57.18128723 -3.36712646 58.01797485 C-4 60 -4 60 -5.80677795 61.25874329 C-9.36080108 62.45991829 -12.98595418 62.34090931 -16.69921875 62.37890625 C-17.55934067 62.3955835 -18.41946259 62.41226074 -19.3056488 62.42944336 C-22.09951938 62.48217655 -24.89342522 62.52219425 -27.6875 62.5625 C-31.50138014 62.63145495 -35.31513088 62.7067555 -39.12890625 62.78125 C-40.06748474 62.7986171 -41.00606323 62.81598419 -41.9730835 62.83387756 C-52.9910493 63.04291059 -63.99067939 63.51224529 -75 64 C-75.33 74.89 -75.66 85.78 -76 97 C-72.390625 96.690625 -68.78125 96.38125 -65.0625 96.0625 C-55.73641248 95.30297964 -46.40965633 94.68168086 -37.0625 94.25 C-35.44710327 94.16504272 -35.44710327 94.16504272 -33.79907227 94.07836914 C-32.80447998 94.03703857 -31.8098877 93.99570801 -30.78515625 93.953125 C-29.46849976 93.89366699 -29.46849976 93.89366699 -28.12524414 93.83300781 C-26 94 -26 94 -24 96 C-23.75949097 98.21463013 -23.75949097 98.21463013 -23.77294922 101.00048828 C-23.77310028 102.04141632 -23.77325134 103.08234436 -23.77340698 104.15481567 C-23.78372955 105.28192963 -23.79405212 106.40904358 -23.8046875 107.5703125 C-23.8075174 108.72167694 -23.81034729 109.87304138 -23.81326294 111.05929565 C-23.82448592 114.74796812 -23.84959444 118.43640053 -23.875 122.125 C-23.88502706 124.62109025 -23.89415338 127.1171843 -23.90234375 129.61328125 C-23.92443216 135.74226984 -23.95793053 141.87111777 -24 148 C-27.42629193 149.71314596 -31.35841399 149.47441374 -35.13671875 149.71875 C-36.50592216 149.81295227 -36.50592216 149.81295227 -37.90278625 149.90905762 C-40.8307659 150.11007502 -43.75908332 150.30546071 -46.6875 150.5 C-49.59801801 150.69511045 -52.50843124 150.89149501 -55.4186554 151.09094238 C-57.23047638 151.21494723 -59.04247359 151.33641163 -60.85466003 151.45495605 C-65.61376701 151.77888742 -70.28756073 152.25729375 -75 153 C-75.07755758 167.52804199 -74.83198723 182.03861564 -74.5 196.5625 C-73.95611655 220.39664086 -73.95611655 220.39664086 -73.90625 231.46484375 C-73.8997644 232.22100479 -73.89327881 232.97716583 -73.88659668 233.75624084 C-73.88504847 235.50456858 -73.93660786 237.25282122 -74 239 C-76.14944285 241.14944285 -80.84252878 240.54707942 -83.828125 240.75390625 C-84.72811218 240.81907944 -85.62809937 240.88425262 -86.55535889 240.95140076 C-88.47196536 241.08893511 -90.38874158 241.22412039 -92.30566406 241.35717773 C-95.19649841 241.55876909 -98.08650598 241.7700052 -100.9765625 241.98242188 C-102.84370806 242.11517451 -104.71089458 242.2473526 -106.578125 242.37890625 C-107.42658997 242.44139053 -108.27505493 242.50387482 -109.14923096 242.56825256 C-114.05101386 242.90123135 -118.91837878 243.02914254 -123.83221436 243.01622009 C-125.57011293 243.01270743 -125.57011293 243.01270743 -127.34312057 243.0091238 C-128.65827589 243.00460752 -128.65827589 243.00460752 -130 243 C-129.99815641 242.29548832 -129.99631283 241.59097664 -129.99441338 240.86511612 C-129.94955503 223.43879568 -129.9168227 206.01249053 -129.89637566 188.58612442 C-129.88621596 180.15765505 -129.87240545 171.7292254 -129.84912109 163.30078125 C-129.73116325 119.70817493 -130.13363943 76.25738215 -132.68949318 32.72227097 C-133.1100754 25.46906846 -133.06602573 18.26283039 -133 11 C-118.65979398 8.78133816 -104.20625602 7.77654315 -89.75 6.625 C-87.05260208 6.40793786 -84.35528602 6.18986482 -81.65795898 5.97192383 C-75.46461969 5.47228883 -69.27092773 4.97717953 -63.07705402 4.48421764 C-58.47390958 4.11778209 -53.87094088 3.74920994 -49.26806641 3.37939453 C-43.3100752 2.90083595 -37.35187021 2.42505562 -31.39343262 1.9520874 C-29.18464349 1.77663571 -26.97590256 1.60057623 -24.76721191 1.42388916 C-21.71087884 1.17991186 -18.65431471 0.93908043 -15.59765625 0.69921875 C-14.26121819 0.591791 -14.26121819 0.591791 -12.89778137 0.48219299 C-12.0717894 0.4180571 -11.24579742 0.3539212 -10.39477539 0.2878418 C-9.68607803 0.23186325 -8.97738068 0.1758847 -8.24720764 0.11820984 C-5.49571317 -0.02652699 -2.75475167 -0.01818435 0 0 Z "
     fill="#FCD431"
     transform="translate(212,371)"
     id="path979" />
  <path
     d="M0 0 C1.20205078 -0.00080566 2.40410156 -0.00161133 3.64257812 -0.00244141 C11.36305147 0.05055147 11.36305147 0.05055147 12.5 1.1875 C12.59887792 2.93132535 12.62799032 4.67915543 12.62939453 6.42578125 C12.63254669 7.54364014 12.63569885 8.66149902 12.63894653 9.81323242 C12.63591019 11.63818237 12.63591019 11.63818237 12.6328125 13.5 C12.63376923 14.73919189 12.63472595 15.97838379 12.63571167 17.25512695 C12.63639374 19.88138281 12.63503538 22.50754633 12.63037109 25.13378906 C12.62467381 28.50678714 12.62795302 31.87970565 12.63394356 35.25270081 C12.6384177 38.46013677 12.63528882 41.667563 12.6328125 44.875 C12.63483673 46.0916333 12.63686096 47.3082666 12.63894653 48.56176758 C12.63421829 50.23855591 12.63421829 50.23855591 12.62939453 51.94921875 C12.62859894 52.93881592 12.62780334 53.92841309 12.62698364 54.94799805 C12.5 57.1875 12.5 57.1875 11.5 58.1875 C10.00540228 58.33934786 8.50406047 58.42557257 7.00292969 58.48461914 C6.04392761 58.52458511 5.08492554 58.56455109 4.09686279 58.60572815 C3.04911682 58.64431442 2.00137085 58.6829007 0.921875 58.72265625 C-0.15568054 58.76563339 -1.23323608 58.80861053 -2.34344482 58.85289001 C-4.6367523 58.94334345 -6.93015332 59.03145018 -9.22363281 59.11743164 C-12.69360019 59.24787974 -16.16319487 59.38598192 -19.6328125 59.52539062 C-21.86456537 59.6124409 -24.09633579 59.69904276 -26.328125 59.78515625 C-27.3515802 59.82576675 -28.3750354 59.86637726 -29.42950439 59.90821838 C-36.80224827 60.18050087 -44.10917964 60.1875 -51.5 60.1875 C-51.5 70.4175 -51.5 80.6475 -51.5 91.1875 C-35.66 91.1875 -19.82 91.1875 -3.5 91.1875 C-1.9864551 94.2145898 -2.37924176 97.33866551 -2.41015625 100.65625 C-2.41584373 101.78685852 -2.41584373 101.78685852 -2.42164612 102.94030762 C-2.47554866 110.75179687 -2.64881679 118.56035845 -2.87231445 126.36865234 C-2.93902505 128.74175082 -2.99787624 131.1149741 -3.05664062 133.48828125 C-3.09848706 135.00261726 -3.14078624 136.51694085 -3.18359375 138.03125 C-3.20030624 138.73834106 -3.21701874 139.44543213 -3.23423767 140.1739502 C-3.38554864 145.07304864 -3.38554864 145.07304864 -4.5 146.1875 C-6.00220202 146.3392129 -7.5110884 146.42553218 -9.01977539 146.48461914 C-9.98069595 146.52458511 -10.94161652 146.56455109 -11.93165588 146.60572815 C-12.976436 146.64431442 -14.02121613 146.6829007 -15.09765625 146.72265625 C-16.16165146 146.76563339 -17.22564667 146.80861053 -18.32188416 146.85289001 C-21.73526223 146.98973058 -25.1488578 147.11993139 -28.5625 147.25 C-30.87046 147.34136113 -33.17840302 147.43315226 -35.48632812 147.52539062 C-41.15736416 147.75109199 -46.82859285 147.97133608 -52.5 148.1875 C-52.4498877 149.09237152 -52.39977539 149.99724304 -52.34814453 150.92953491 C-51.87449147 159.49106903 -51.40348635 168.05274394 -50.93539429 176.61458397 C-50.69469937 181.01543509 -50.45301022 185.41622675 -50.20898438 189.81689453 C-49.9731667 194.07022027 -49.74004499 198.32368626 -49.50872803 202.57725906 C-49.42037337 204.1934592 -49.33107605 205.8096081 -49.24078369 207.42570114 C-48.77988373 215.68597664 -48.38473967 223.91036784 -48.5 232.1875 C-51.92683968 233.90091984 -55.85796338 233.68366773 -59.63671875 233.94140625 C-60.54952103 234.00657944 -61.4623233 234.07175262 -62.40278625 234.13890076 C-64.33861231 234.27619097 -66.27458754 234.41139102 -68.21069336 234.54467773 C-71.15842395 234.74799451 -74.105582 234.95840612 -77.05273438 235.16992188 C-78.93486596 235.30250813 -80.8170266 235.43468265 -82.69921875 235.56640625 C-83.57551437 235.62889053 -84.45181 235.69137482 -85.35466003 235.75575256 C-90.07964375 236.07778928 -94.76410816 236.35015788 -99.5 236.1875 C-101.65536793 234.03213207 -100.72643163 229.03946018 -100.76538086 226.04638672 C-100.78186393 225.07915176 -100.798347 224.11191681 -100.81532955 223.1153717 C-100.86966188 219.86603362 -100.91713184 216.61662901 -100.96484375 213.3671875 C-101.0022706 211.07243024 -101.04021402 208.77768136 -101.0786438 206.48294067 C-101.16019384 201.57329857 -101.23910268 196.66362422 -101.31594849 191.75390625 C-101.5178407 178.89561401 -101.73891711 166.03764551 -101.9609375 153.1796875 C-101.98302591 151.89369408 -102.00511433 150.60770065 -102.02787209 149.28273773 C-102.43097976 125.91462422 -102.94572421 102.55089074 -103.5625 79.1875 C-103.58361973 78.38451603 -103.60473946 77.58153206 -103.62649918 76.75421524 C-103.84339109 68.51296004 -104.06438534 60.27182138 -104.28857422 52.03076172 C-104.56204548 41.96988246 -104.81325171 31.90846445 -105.06100464 21.84692383 C-105.14036114 18.62664702 -105.22064794 15.40639381 -105.30101013 12.18614197 C-105.36753734 9.51993288 -105.433782 6.85371679 -105.5 4.1875 C-70.46948492 1.31106695 -35.14534107 0.02213183 0 0 Z "
     fill="#FCD330"
     transform="translate(503.5,377.8125)"
     id="path981" />
  <path
     d="M0 0 C0.7420166 0.00829834 1.4840332 0.01659668 2.24853516 0.02514648 C16.1764567 0.45027639 28.21424079 7.96318577 37.625 17.9453125 C52.02006007 35.33934342 54.07432202 57.59115255 53.8125 79.3125 C53.80243329 80.7903584 53.79331407 82.26822358 53.78515625 83.74609375 C53.76347371 87.31004028 53.72915536 90.87372415 53.6875 94.4375 C50.64562466 96.14328027 48.00420999 96.86151321 44.56201172 97.3671875 C43.53929169 97.52074707 42.51657166 97.67430664 41.46286011 97.83251953 C40.35878815 97.99091309 39.25471619 98.14930664 38.1171875 98.3125 C36.96695099 98.48249512 35.81671448 98.65249023 34.63162231 98.82763672 C32.18929915 99.1871727 29.74648192 99.54336584 27.30322266 99.89648438 C23.62416419 100.42858159 19.94677467 100.97114152 16.26953125 101.515625 C3.43148764 103.4025541 -9.40067469 105.14141451 -22.3125 106.4375 C-21.46808593 116.81994591 -21.46808593 116.81994591 -16.3125 125.4375 C-9.89096609 129.83613312 -4.02273451 131.60810495 3.6875 130.4375 C12.38758826 128.69058664 19.69430769 125.0655858 27.21923828 120.52368164 C30.70862689 118.43330301 33.56063668 116.90574026 37.6875 116.4375 C41.6712515 124.76603047 45.51586133 133.15393507 49.1875 141.625 C49.54972656 142.43815674 49.91195312 143.25131348 50.28515625 144.08911133 C50.61386719 144.85763428 50.94257812 145.62615723 51.28125 146.41796875 C51.57708984 147.09754639 51.87292969 147.77712402 52.17773438 148.47729492 C52.79826421 150.86342232 52.52937092 152.13835199 51.6875 154.4375 C41.68858428 168.61940731 23.52906775 178.50600578 6.6875 181.4375 C-5.61715992 182.31831343 -17.90477603 182.57900939 -29.3125 177.4375 C-30.24835937 177.025 -31.18421875 176.6125 -32.1484375 176.1875 C-47.73469999 168.50351625 -56.46964324 155.98811888 -62.125 140.0625 C-62.91419398 137.53229432 -63.61660003 134.99704119 -64.3125 132.4375 C-64.6321875 131.29925781 -64.951875 130.16101563 -65.28125 128.98828125 C-69.78033963 109.7213465 -69.01617723 87.6165454 -64.3125 68.4375 C-64.15152832 67.75010742 -63.99055664 67.06271484 -63.82470703 66.35449219 C-59.12286492 46.81542496 -49.51853357 23.10595955 -32.3125 11.4375 C-27.14473821 8.44505674 -21.78190968 5.82906185 -16.3125 3.4375 C-15.33011353 3.00159546 -15.33011353 3.00159546 -14.32788086 2.55688477 C-9.4846863 0.55704134 -5.22317033 -0.07626381 0 0 Z "
     fill="#FCD430"
     transform="translate(792.3125,432.5625)"
     id="path983" />
  <path
     d="M0 0 C9.21710741 5.88387674 16.08156603 12.58230961 21 22.375 C21.45117188 23.26316406 21.90234375 24.15132813 22.3671875 25.06640625 C30.08207683 41.11246305 31.16708884 57.7129705 31.3125 75.25 C31.33014404 76.50546631 31.34778809 77.76093262 31.3659668 79.05444336 C31.36463745 80.81800171 31.36463745 80.81800171 31.36328125 82.6171875 C31.36626221 83.6779248 31.36924316 84.73866211 31.37231445 85.83154297 C31.24945068 86.67088379 31.12658691 87.51022461 31 88.375 C27.7488393 90.54244046 25.96116853 90.86406418 22.14257812 91.41235352 C20.334245 91.67756554 20.334245 91.67756554 18.48937988 91.94813538 C16.53010559 92.22324196 16.53010559 92.22324196 14.53125 92.50390625 C13.17174967 92.69984801 11.81233508 92.89638552 10.45300293 93.0934906 C7.59887464 93.50573805 4.74408665 93.91292343 1.88867188 94.31616211 C-1.74213936 94.82899198 -5.37157695 95.35082963 -9.00060272 95.8761301 C-11.81267138 96.28271522 -14.62519409 96.68608103 -17.43788147 97.08836174 C-19.41798129 97.37164307 -21.39789703 97.65621022 -23.37780762 97.94081116 C-30.57426451 98.95619512 -37.75397645 99.80700126 -45 100.375 C-43.96988277 108.75147955 -42.98608196 114.69553973 -36.5625 120.625 C-30.57112289 124.71667217 -25.08272433 125.19529061 -18 124.375 C-7.77924526 121.94030994 0.7377075 116.85640397 9.578125 111.38671875 C13 109.375 13 109.375 15 109.375 C17.62308003 115.16610187 20.23163508 120.96352877 22.828125 126.76660156 C23.86544001 129.07549188 24.91513945 131.37820696 25.96875 133.6796875 C26.52148549 134.91116583 27.07361759 136.14291525 27.625 137.375 C28.11226562 138.4475 28.59953125 139.52 29.1015625 140.625 C30.05505485 143.54351571 30.23085989 144.60994035 29 147.375 C18.75640272 162.55806653 1.33819693 172.04257119 -16.1953125 175.71484375 C-32.36841091 178.52105898 -48.19540828 173.87795098 -62 165.375 C-78.58194993 153.6673504 -86.03263295 133.92768136 -89.4375 114.5625 C-92.81202836 82.91692292 -88.69275462 46.47845642 -69 20.375 C-51.89597271 -0.49771127 -25.92252682 -14.44599018 0 0 Z "
     fill="#FCD430"
     transform="translate(682,438.625)"
     id="path985" />
  <path
     d="M0 0 C0.78890625 0.62261719 0.78890625 0.62261719 1.59375 1.2578125 C1.07302751 6.84815966 0.01752022 11.35976312 -2.12890625 16.6015625 C-2.39384384 17.25612427 -2.65878143 17.91068604 -2.93174744 18.58508301 C-3.76846949 20.64644296 -4.61831003 22.70207966 -5.46875 24.7578125 C-6.04319942 26.16630739 -6.61677518 27.57515892 -7.18945312 28.984375 C-8.58498987 32.41303002 -9.99233403 35.83668907 -11.40625 39.2578125 C-15.82743955 38.48098335 -19.39942654 36.90498722 -23.34375 34.8203125 C-33.10663673 29.6903016 -41.66701954 27.3369127 -52.53125 30.5078125 C-54.71466088 31.10834149 -54.71466088 31.10834149 -56.40625 32.2578125 C-57.87921607 36.04317692 -57.86827231 40.25361916 -57.40625 44.2578125 C-56.00700055 47.55882381 -56.00700055 47.55882381 -54.40625 50.2578125 C-54.40625 50.9178125 -54.40625 51.5778125 -54.40625 52.2578125 C-51.4429692 53.85514774 -48.39472291 55.02512809 -45.22900391 56.15966797 C-31.69016434 61.02996707 -17.9476114 66.15401704 -7.40625 76.2578125 C-6.76429688 76.87140625 -6.12234375 77.485 -5.4609375 78.1171875 C4.93823752 89.01156133 8.08776529 101.87158797 7.83984375 116.484375 C6.92862326 130.45642244 1.09540945 143.84253162 -9.40625 153.2578125 C-21.64339333 162.38136315 -33.76714572 166.66302979 -48.96875 166.5703125 C-49.93111572 166.56539795 -50.89348145 166.5604834 -51.88500977 166.55541992 C-70.53322735 166.25296609 -88.53675783 161.13756598 -104.40625 151.2578125 C-105.85644531 150.37802734 -105.85644531 150.37802734 -107.3359375 149.48046875 C-108.01914062 148.74699219 -108.70234375 148.01351562 -109.40625 147.2578125 C-109.0968728 141.6855321 -107.34624837 137.00634156 -105.24609375 131.91796875 C-104.93676407 131.15101181 -104.62743439 130.38405487 -104.30873108 129.59385681 C-103.32770686 127.16630604 -102.33593322 124.74332076 -101.34375 122.3203125 C-100.67311067 120.66630635 -100.00318146 119.01201208 -99.33398438 117.35742188 C-97.69960054 113.32084003 -96.0555675 109.28831429 -94.40625 105.2578125 C-91.10542057 105.82674763 -88.31614548 106.60932974 -85.3046875 108.0703125 C-84.56734375 108.42351562 -83.83 108.77671875 -83.0703125 109.140625 C-82.31492187 109.50929688 -81.55953125 109.87796875 -80.78125 110.2578125 C-79.26892802 110.98842751 -77.75593337 111.7176522 -76.2421875 112.4453125 C-75.24517822 112.93064453 -75.24517822 112.93064453 -74.22802734 113.42578125 C-68.79046775 115.90919094 -62.79845275 116.35629426 -57.078125 114.50390625 C-53.39289555 112.76365901 -50.19743442 111.06407939 -48.40625 107.2578125 C-47.79337576 104.19344132 -47.77404573 102.27095473 -49.45727539 99.57348633 C-53.49451393 94.65017689 -57.60689497 92.24549964 -63.40625 89.7578125 C-65.10573038 88.98495006 -66.8049473 88.21150802 -68.50390625 87.4375 C-70.82051457 86.40401213 -73.13917935 85.37550895 -75.46044922 84.35253906 C-88.48824008 78.55112739 -99.29791079 70.50603164 -105.40625 57.2578125 C-106.02113281 55.97583984 -106.02113281 55.97583984 -106.6484375 54.66796875 C-111.1487657 43.60336873 -111.37808808 29.53788176 -107.46875 18.2578125 C-100.71755501 3.44321842 -88.52080721 -8.9484373 -73.31640625 -14.96484375 C-47.8582354 -23.74460848 -21.25749589 -15.39097917 0 0 Z "
     fill="#FCD431"
     transform="translate(380.40625,448.7421875)"
     id="path987" />
  <path
     d="M0 0 C-0.4792714 15.68034236 -0.96614304 31.34445173 -2 47 C7.57 47 17.14 47 27 47 C27.02290639 52.82076811 27.04283426 58.641381 27.05493164 64.4621582 C27.05997267 66.44393441 27.06680538 68.42570689 27.07543945 70.4074707 C27.08751515 73.24952109 27.09323045 76.09152247 27.09765625 78.93359375 C27.10281754 79.82525742 27.10797882 80.71692108 27.11329651 81.63560486 C27.11349177 83.75740601 27.0621003 85.8791078 27 88 C26 89 26 89 23.13256836 89.11352539 C21.88096924 89.10828857 20.62937012 89.10305176 19.33984375 89.09765625 C18.34314415 89.09553383 18.34314415 89.09553383 17.3263092 89.09336853 C15.19666101 89.08775518 13.06711661 89.07520054 10.9375 89.0625 C9.49674631 89.05748671 8.05599097 89.05292351 6.61523438 89.04882812 C3.07678898 89.03778145 -0.46159539 89.02050792 -4 89 C-4.09272773 100.3700805 -4.16377926 111.74007087 -4.20724869 123.11045265 C-4.22811311 128.39034009 -4.25641012 133.6699686 -4.30175781 138.94970703 C-4.345256 144.04607052 -4.36914573 149.14218513 -4.37950897 154.23871994 C-4.38689318 156.18197929 -4.40131288 158.1252252 -4.42292023 160.06837845 C-4.45200697 162.79279135 -4.4559538 165.51617917 -4.45410156 168.24072266 C-4.46848267 169.04201599 -4.48286377 169.84330933 -4.49768066 170.66888428 C-4.45946365 175.87248788 -3.51042962 178.91088288 0 183 C5.91004406 184.97001469 11.42685923 184.34537343 17.30859375 182.484375 C18.63395142 182.07010254 18.63395142 182.07010254 19.98608398 181.64746094 C20.65067627 181.43379883 21.31526855 181.22013672 22 181 C22.86323204 185.83654831 23.71738993 190.67458299 24.56347656 195.51416016 C24.85205258 197.15749407 25.14302727 198.80040877 25.43652344 200.44287109 C25.85996281 202.81499574 26.27451709 205.18853532 26.6875 207.5625 C26.81874268 208.28679199 26.94998535 209.01108398 27.08520508 209.75732422 C27.9110562 214.57063491 28.28330401 219.11367078 28 224 C24.50521254 227.19000948 19.73093867 228.22310899 15.25 229.5625 C14.53191162 229.77865967 13.81382324 229.99481934 13.07397461 230.2175293 C11.66441952 230.63715565 10.25356918 231.05246173 8.84130859 231.46289062 C7.40645973 231.88143577 5.97735192 232.31967946 4.55078125 232.765625 C-7.75987927 236.15166129 -22.07211709 235.06754437 -33.1875 228.8125 C-42.7707751 222.28196172 -47.38086832 212.95933701 -50.11328125 201.890625 C-51.72806255 193.25655369 -51.38801212 184.37429498 -51.375 175.625 C-51.3764502 174.633862 -51.37790039 173.642724 -51.37939453 172.62155151 C-51.37496702 144.68641516 -49.1549394 116.83600526 -47 89 C-47.56509277 89.01571045 -48.13018555 89.0314209 -48.71240234 89.04760742 C-51.26650023 89.10987045 -53.82043871 89.14896136 -56.375 89.1875 C-57.26445313 89.21263672 -58.15390625 89.23777344 -59.0703125 89.26367188 C-60.34648438 89.27817383 -60.34648438 89.27817383 -61.6484375 89.29296875 C-62.43395996 89.3086792 -63.21948242 89.32438965 -64.02880859 89.34057617 C-64.67930176 89.22818604 -65.32979492 89.1157959 -66 89 C-69.56195848 83.65706228 -69.12279817 77.57674351 -69.09765625 71.31640625 C-69.0962413 70.61603745 -69.09482635 69.91566864 -69.09336853 69.19407654 C-69.08782477 66.98350534 -69.07528326 64.77303996 -69.0625 62.5625 C-69.05747771 61.05273585 -69.05291609 59.54297009 -69.04882812 58.03320312 C-69.03872981 54.35539637 -69.01914421 50.67781496 -69 47 C-61.74 46.67 -54.48 46.34 -47 46 C-47 31.81 -47 17.62 -47 3 C-15.3143508 -0.55353075 -15.3143508 -0.55353075 0 0 Z "
     fill="#FCD330"
     transform="translate(919,381)"
     id="path989" />
  <path
     d="M0 0 C15.09229916 -0.32730287 29.96919708 0.67659949 45 2 C45.79783663 5.44031949 46.07787792 8.44152902 45.87469482 11.9631958 C45.79491142 13.4275985 45.79491142 13.4275985 45.71351624 14.92158508 C45.61701027 16.51355965 45.61701027 16.51355965 45.51855469 18.13769531 C45.4552446 19.26606308 45.39193451 20.39443085 45.32670593 21.55699158 C45.11441227 25.31440328 44.89308723 29.07122866 44.671875 32.828125 C44.52009856 35.4869271 44.36885274 38.14575406 44.21832275 40.80462646 C43.85855432 47.14005704 43.49248104 53.47510632 43.12396646 59.81003356 C42.47888576 70.90399821 41.84626015 81.99868066 41.21236241 93.0932889 C41.01611054 96.52752826 40.81949155 99.96174591 40.62209702 103.3959198 C39.35018564 125.52459706 38.15053247 147.65617812 37.01873779 169.7925415 C36.05429539 188.5596943 34.88920148 207.31175704 33.6484375 226.0625 C33.59790789 226.85668461 33.54737827 227.65086922 33.49531746 228.46912003 C33.11460521 233.88539479 33.11460521 233.88539479 32 235 C30.37872577 235.09861598 28.75317632 235.12798767 27.12890625 235.12939453 C25.57224243 235.13412277 25.57224243 235.13412277 23.98413086 235.13894653 C22.29042358 235.13591019 22.29042358 235.13591019 20.5625 235.1328125 C18.83688843 235.13424759 18.83688843 235.13424759 17.07641602 235.13571167 C14.63850856 235.13639369 12.2005993 235.1345379 9.76269531 235.13037109 C6.01623482 235.12502317 2.26989423 235.13031539 -1.4765625 235.13671875 C-3.83854193 235.13605797 -6.20052129 235.13477682 -8.5625 235.1328125 C-9.69163818 235.13483673 -10.82077637 235.13686096 -11.98413086 235.13894653 C-13.54079468 235.13421829 -13.54079468 235.13421829 -15.12890625 235.12939453 C-16.04744385 235.12859894 -16.96598145 235.12780334 -17.91235352 235.12698364 C-20 235 -20 235 -21 234 C-21.73980973 224.38498562 -20.45971311 214.52334555 -19.6875 204.9375 C-19.5484484 203.17823337 -19.40953489 201.41895582 -19.27075195 199.65966797 C-18.03367859 184.07483596 -16.68792968 168.50049029 -15.26690674 152.93139648 C-14.96413345 149.60608307 -14.66340494 146.28058762 -14.36279297 142.95507812 C-11.24688571 108.5169367 -7.99723804 74.09978569 -4.29290771 39.71899414 C-3.99350376 36.93969692 -3.69513004 34.16029059 -3.39697266 31.38085938 C-2.2741511 20.91953231 -1.14264036 10.45918129 0 0 Z "
     fill="#FCD330"
     transform="translate(537,378)"
     id="path991" />
  <path
     d="M0 0 C3.02711016 -0.30385765 5.84587474 -0.41986798 8.875 -0.3984375 C10.19540283 -0.40274277 10.19540283 -0.40274277 11.54248047 -0.40713501 C13.40527997 -0.40917828 15.2681008 -0.40363009 17.13085938 -0.39111328 C19.98876741 -0.37506308 22.84526116 -0.39095282 25.703125 -0.41015625 C27.5104198 -0.40817386 29.31771372 -0.40433029 31.125 -0.3984375 C31.98335449 -0.40451019 32.84170898 -0.41058289 33.72607422 -0.4168396 C36.1328125 -0.38818359 36.1328125 -0.38818359 40 0 C42.35900146 3.53850219 42.24926103 4.99476512 42.24723816 9.18701172 C42.25143265 10.48257996 42.25562714 11.77814819 42.25994873 13.11297607 C42.25446513 14.55188063 42.24878214 15.99078444 42.24291992 17.4296875 C42.24399267 18.94248537 42.24593123 20.45528284 42.24867249 21.96807861 C42.25352523 26.079582 42.24585976 30.19097706 42.23571944 34.30246735 C42.22694543 38.6012205 42.22869626 42.89997019 42.2290802 47.19873047 C42.22814323 54.41831274 42.21945496 61.63785302 42.20581055 68.85742188 C42.19008469 77.20928696 42.18481243 85.56110603 42.1855461 93.91298485 C42.18615611 101.94071467 42.18105315 109.96842947 42.17275429 117.99615479 C42.16922004 121.41554888 42.16739084 124.83493766 42.16686058 128.2543335 C42.16585724 132.27948444 42.15976133 136.30459664 42.14969444 140.3297348 C42.14676957 141.80880242 42.14554405 143.28787449 42.14612198 144.76694489 C42.14661152 146.78229687 42.14034723 148.79764716 42.13371277 150.81298828 C42.13203692 151.9419754 42.13036108 153.07096252 42.12863445 154.23416138 C42 157 42 157 41 160 C24.17 160 7.34 160 -10 160 C-10 147.6272026 -10 147.6272026 -9.68041992 142.16992188 C-9.60991425 140.93761337 -9.53940857 139.70530487 -9.46676636 138.43565369 C-9.38878815 137.12657547 -9.31080994 135.81749725 -9.23046875 134.46875 C-9.14861387 133.05308357 -9.06708998 131.63739797 -8.98587036 130.22169495 C-8.81271734 127.21143153 -8.63785726 124.2012746 -8.46157837 121.19119263 C-7.99509811 113.22036618 -7.54043255 105.24886109 -7.0859375 97.27734375 C-7.03983904 96.47030943 -6.99374058 95.66327511 -6.94624519 94.8317852 C-5.79565551 74.66468437 -4.77902809 54.49151353 -3.78016663 34.31637573 C-3.57145407 30.1346059 -3.35656782 25.9531694 -3.14019775 21.77178955 C-3.0081837 19.16179645 -2.88681495 16.55149813 -2.76708984 13.94091797 C-2.69288552 12.48011761 -2.61821957 11.01934058 -2.54296875 9.55859375 C-2.48520264 8.34357178 -2.42743652 7.1285498 -2.36791992 5.87670898 C-2 3 -2 3 0 0 Z "
     fill="#FDD431"
     transform="translate(219,454)"
     id="path993" />
  <path
     d="M0 0 C5.71883699 5.02272387 9.21653772 10.60390354 10.3125 18.15234375 C10.7273416 25.52874588 8.13586269 32.47266953 3.75 38.375 C-1.40770146 43.29826048 -5.82329576 45.22849795 -13 45.5 C-20.75800304 45.18772818 -25.47091309 42.88778134 -30.8125 37.3125 C-35.58303149 31.43102282 -37.67900059 24.89409002 -37.3359375 17.3203125 C-36.14199938 9.0738097 -32.66384005 3.76796846 -26.23046875 -1.4375 C-17.38787978 -7.63195812 -8.43560284 -5.6741107 0 0 Z "
     fill="#FBD431"
     transform="translate(254,390)"
     id="path995" />
  <path
     d="M0 0 C5.33307737 3.5940304 8.46595764 8.66085677 9.875 14.9375 C10.01668216 17.62946104 9.96809107 20.23785905 9.875 22.9375 C5.94251606 24.68578645 2.20509591 25.52642059 -2.03515625 26.2265625 C-2.68447617 26.33471283 -3.33379608 26.44286316 -4.00279236 26.55429077 C-5.3680332 26.78044069 -6.73373304 27.00383527 -8.09985352 27.22460938 C-10.185592 27.56219119 -12.26957814 27.90930335 -14.35351562 28.2578125 C-24.54962506 29.9375 -24.54962506 29.9375 -29.125 29.9375 C-28.44579256 20.2021934 -24.73033231 10.47514042 -17.87890625 3.4609375 C-12.32571849 -1.36254408 -6.96896543 -2.36944825 0 0 Z "
     fill="#040300"
     transform="translate(798.125,475.0625)"
     id="path997" />
  <path
     d="M0 0 C5.34562017 3.06878195 7.24040937 6.68534317 9.3203125 12.41796875 C10.28896055 16.09771795 10.28034348 19.21536304 10 23 C5.29045484 24.41900529 0.6871584 25.48760384 -4.17578125 26.2890625 C-4.82701462 26.39721283 -5.47824799 26.50536316 -6.1492157 26.61679077 C-7.51102626 26.84214891 -8.87315876 27.06556965 -10.2355957 27.28710938 C-12.3251401 27.62705641 -14.41359007 27.97318906 -16.50195312 28.3203125 C-26.68794304 30 -26.68794304 30 -29 30 C-27.68920614 18.51925379 -23.98204471 8.62449778 -14.83203125 1.20703125 C-10.12109665 -1.89676148 -5.27289585 -1.15987257 0 0 Z "
     fill="#030200"
     transform="translate(665,475)"
     id="path999" />
  <path
     d="M0 0 C0.99 0.33 1.98 0.66 3 1 C3.02334151 21.0272918 3.04098535 41.05458085 3.05181217 61.08188343 C3.05697246 70.38052131 3.0640101 79.67915074 3.07543945 88.9777832 C3.08539442 97.080742 3.09185537 105.18369468 3.09408849 113.28665942 C3.09539421 117.57865988 3.09847135 121.87064285 3.10573006 126.16263771 C3.11250307 130.2000499 3.11461433 134.23743733 3.11310768 138.27485466 C3.11338343 139.75876118 3.11538097 141.24266851 3.11920547 142.72657013 C3.12416262 144.74864101 3.12239289 146.77072508 3.12025452 148.7928009 C3.12117631 149.92568448 3.1220981 151.05856806 3.12304783 152.22578144 C3 155 3 155 2 158 C-14.83 158 -31.66 158 -49 158 C-49 156.35 -49 154.7 -49 153 C-48.67 153.66 -48.34 154.32 -48 155 C-32.16 155 -16.32 155 0 155 C0 103.85 0 52.7 0 0 Z "
     fill="#CDAD27"
     transform="translate(258,456)"
     id="path1001" />
  <path
     d="M0 0 C0.33 0 0.66 0 1 0 C1.33 12.87 1.66 25.74 2 39 C2.33 39 2.66 39 3 39 C3.39801093 79.716518 3.39801093 79.716518 1.24365234 96.90429688 C0.62217394 102.24975838 0.34289705 107.63095409 0 113 C-0.33 113 -0.66 113 -1 113 C-0.67 75.71 -0.34 38.42 0 0 Z "
     fill="#C2A325"
     transform="translate(83,501)"
     id="path1003" />
  <path
     d="M0 0 C0.33 0 0.66 0 1 0 C1.63005196 31.6692276 2.17652306 63.3239183 2 95 C6.95 95 11.9 95 17 95 C17 95.33 17 95.66 17 96 C14.35448944 96.19386492 11.70882217 96.38038267 9.0625 96.5625 C7.93038086 96.64661133 7.93038086 96.64661133 6.77539062 96.73242188 C4.85254042 96.86176157 2.92610452 96.93516912 1 97 C-0.89977088 95.10022912 -0.12012643 92.31060935 -0.12442017 89.78329468 C-0.11902725 88.44218124 -0.11902725 88.44218124 -0.11352539 87.07397461 C-0.11367142 86.13748581 -0.11381744 85.20099701 -0.1139679 84.23612976 C-0.11326837 81.12484461 -0.10547415 78.01361851 -0.09765625 74.90234375 C-0.09579221 72.75142957 -0.09436824 70.60051497 -0.09336853 68.44960022 C-0.08954225 62.77618242 -0.07971102 57.10279005 -0.06866455 51.42938232 C-0.0584528 45.64498234 -0.05387142 39.86057827 -0.04882812 34.07617188 C-0.03808885 22.71743672 -0.02101111 11.35872047 0 0 Z "
     fill="#FDEF38"
     transform="translate(403,517)"
     id="path1005" />
  <path
     d="M0 0 C3.95008059 0.68379546 6.63457018 1.78843183 10 4 C9.01 4.495 9.01 4.495 8 5 C5.64018187 4.06421005 3.30368736 3.06652192 1 2 C0.67 4.31 0.34 6.62 0 9 C-0.66 9 -1.32 9 -2 9 C-2.144375 9.721875 -2.28875 10.44375 -2.4375 11.1875 C-2.95833333 13.79166667 -3.47916667 16.39583333 -4 19 C-4.99 19 -5.98 19 -7 19 C-4.94235079 12.54646385 -2.57616518 6.2638737 0 0 Z "
     fill="#F2E036"
     transform="translate(286,554)"
     id="path1007" />
  <path
     d="M0 0 C2.93491502 1.50711852 4.70479393 2.48465454 6.3671875 5.38671875 C10.12557974 11.40194461 17.62409599 15.14762189 24 18 C21 19 21 19 18.87109375 18.1015625 C2.40577804 8.11137094 2.40577804 8.11137094 0.22265625 1.7265625 C0.14917969 1.15679688 0.07570313 0.58703125 0 0 Z "
     fill="#F0DF37"
     transform="translate(740,590)"
     id="path1009" />
  <path
     d="M0 0 C4.06225548 0.57823096 6.84762346 1.89117737 10.3125 4.0625 C11.19550781 4.61035156 12.07851563 5.15820312 12.98828125 5.72265625 C13.65214844 6.14417969 14.31601562 6.56570313 15 7 C14.01 7.66 13.02 8.32 12 9 C11.13375 8.236875 10.2675 7.47375 9.375 6.6875 C6.46399345 4.24779927 3.47056439 2.57001723 0 1 C0 0.67 0 0.34 0 0 Z "
     fill="#E4D132"
     transform="translate(318,538)"
     id="path1011" />
  <path
     d="M0 0 C0.99 0.33 1.98 0.66 3 1 C2.67 3.64 2.34 6.28 2 9 C1.67 9 1.34 9 1 9 C0.67 6.03 0.34 3.06 0 0 Z "
     fill="#F2DC34"
     transform="translate(379,449)"
     id="path1013" />
</svg>
